<svg xmlns="http://www.w3.org/2000/svg" viewBox="0 0 70 70"><defs><style>.cls-1{fill:#33d1cc;}</style></defs><g id="Layer_2" data-name="Layer 2"><g id="Layer_11" data-name="Layer 11"><path class="cls-1" d="M70,9.4A9.4,9.4,0,0,0,60.6,0H9.4A9.4,9.4,0,0,0,0,9.4V60.6A9.4,9.4,0,0,0,9.4,70H60.6A9.4,9.4,0,0,0,70,60.6ZM52.23,64.07a21.6,21.6,0,0,1-23.79-8.95C23.28,47,25,37.23,32.66,31.48c6-4.47,5.67-12.59-.45-17-4.29-3.1-9-3.55-13.72-.9a10,10,0,0,0-4.47,12Q19.22,41.31,24.37,57c.1.33.17.66.33,1.24a22.43,22.43,0,0,1-8.21-5.59,19.28,19.28,0,0,1-4.15-7.15c-2.05-6.31-4.25-12.57-6.1-18.94a16.27,16.27,0,0,1,8.3-19.31,21,21,0,0,1,28.54,9.43c3.44,7.47,1.66,15.32-5,20.17-7.06,5.17-5.5,14.35,1,18.4a12.31,12.31,0,0,0,11.76,1.11c5.38-2.25,7.66-7.59,5.73-13.18C53,32.76,49.35,22.38,45.72,12c-.07-.19-.11-.38-.2-.7a12.56,12.56,0,0,1,4.79,2.35,20,20,0,0,1,7.6,10c2.05,6,4.27,12,6.34,18C67.61,51.4,62.27,61.31,52.23,64.07Z"/></g></g></svg>