<svg xmlns="http://www.w3.org/2000/svg" viewBox="0 0 156.68 171.82"><defs><style>.cls-1{fill:none;}.cls-2{fill:#400;}.cls-3{fill:#603;}.cls-4{fill:#c06;}</style></defs><g id="Layer_2" data-name="Layer 2"><g id="Layer_1-2" data-name="Layer 1"><path class="cls-1" d="M109,4.27s-35.44,2-40.53,36.85a29.87,29.87,0,0,0,1.53,15c9.31,24.53,37.13.17,50.81,34.69"/><path d="M32.27,90.07s0-.49.13-1.41.26-2.28.54-4,.63-3.78,1.16-6.13,1.13-5,1.95-7.87,1.8-5.93,2.93-9.16S41.47,55,43,51.56c.39-.85.77-1.71,1.19-2.57l1.29-2.56c.84-1.74,1.83-3.43,2.79-5.16s2-3.41,3.12-5.09,2.2-3.36,3.45-4.95l1.83-2.41c.62-.8,1.29-1.56,1.93-2.34,1.26-1.57,2.68-3,4.06-4.45s2.89-2.76,4.32-4.1,3-2.49,4.55-3.63l2.36-1.61a23.36,23.36,0,0,1,2.36-1.49l2.38-1.35c.4-.22.78-.44,1.18-.65l1.21-.55a52.38,52.38,0,0,1,9.25-3.4c1.49-.32,2.89-.71,4.26-.93l3.89-.47.89-.11.88,0c.57,0,1.12,0,1.65,0h2.89c1.74.14,3.1.32,4,.41l1.41.17-1.41.22c-.91.12-2.25.34-3.93.53l-2.75.61c-.5.12-1,.23-1.55.34l-.81.16-.83.26L95.36,7.47c-1.23.43-2.49,1-3.81,1.48l-1,.39-1,.49-2,1a46.8,46.8,0,0,0-4.1,2.29A71.67,71.67,0,0,0,75.25,19q-2,1.74-4,3.57-.95,1-1.92,2c-.65.64-1.3,1.29-1.91,2-1.24,1.38-2.49,2.76-3.66,4.23-.6.74-1.21,1.45-1.79,2.2l-1.7,2.27c-1.18,1.48-2.19,3.1-3.29,4.64S54.9,43,53.91,44.62C52,47.83,50.06,51,48.38,54.21s-3.28,6.29-4.74,9.27S40.87,69.33,39.71,72s-2.24,5.13-3.16,7.32S34.87,83.44,34.23,85C33,88.22,32.27,90.07,32.27,90.07Z"/><path d="M110.19,4.27s-.54.11-1.55.35-2.45.65-4.26,1.23A65.32,65.32,0,0,0,98,8.33a50.07,50.07,0,0,0-7.57,4.26,41.44,41.44,0,0,0-7.6,6.57,38.78,38.78,0,0,0-6.11,9.12A43.68,43.68,0,0,0,73.26,39.5L73,41c0,.23-.09.54-.11.71l-.09.81c-.08.89-.14,1.91-.15,2.87a26.88,26.88,0,0,0,.6,5.8A26.17,26.17,0,0,0,74,54l.24.68.06.17,0,0c-.11-.26,0,0,0-.09l0,.09.16.38.64,1.51a17.81,17.81,0,0,0,2.93,4.34,13.1,13.1,0,0,0,4.22,2.93,26.59,26.59,0,0,0,5.34,1.62c3.78.78,7.83,1.22,11.68,2.12a43.24,43.24,0,0,1,5.59,1.72,28.05,28.05,0,0,1,4.9,2.58,25.42,25.42,0,0,1,6.8,6.66c.21.28.41.56.6.83l.52.85c.34.55.66,1.08,1,1.61.51,1.08,1,2,1.39,2.94s.68,1.73.94,2.43.42,1.34.57,1.84c.29,1,.45,1.52.45,1.52l-.8-1.37c-.26-.45-.58-1-1-1.64s-.88-1.34-1.39-2.14S117.68,84,117,83.1s-1.47-1.83-2.41-2.7a25,25,0,0,0-6.79-4.94,25.36,25.36,0,0,0-4.41-1.68,41.76,41.76,0,0,0-5-1c-3.56-.5-7.47-.6-11.79-1.22a29.9,29.9,0,0,1-6.73-1.69,18.54,18.54,0,0,1-6.4-4.11A22.41,22.41,0,0,1,69,59.42l-.65-1.51-.17-.37L68,57.21,68,57l-.31-.87a30.92,30.92,0,0,1-1-3.54,33.33,33.33,0,0,1-.42-10.91l.12-.81c0-.36.11-.59.16-.89l.32-1.7a44.74,44.74,0,0,1,4.6-12.72,40,40,0,0,1,7.82-10,41.59,41.59,0,0,1,9.21-6.35,47.95,47.95,0,0,1,15.61-4.69,37.36,37.36,0,0,1,4.51-.31C109.64,4.23,110.19,4.27,110.19,4.27Z"/><circle class="cls-2" cx="110.19" cy="4.27" r="4.27"/><circle cx="122" cy="90.77" r="2.55"/><path class="cls-3" d="M132.87,98.44a38,38,0,0,0-19-2.48c-27.44,2.35-67.34,51.78-64.15,52.37L111,114.21a21,21,0,1,1-.24,39c-5.83-2.35-12.51-11.1-14.43-16.61L83.73,149a38.07,38.07,0,1,0,49.14-50.58Z"/><path class="cls-4" d="M23.81,168.35a38,38,0,0,0,19,2.48c27.45-2.34,67.34-51.78,64.16-52.37L45.7,152.58a21,21,0,1,1,.24-39c5.83,2.36,12.82,10.47,14.73,16L73,117.77a38.07,38.07,0,1,0-49.14,50.58Z"/><circle cx="31.94" cy="89.7" r="2.55"/></g></g></svg>